<?xml version="1.0" encoding="UTF-8"?>
<!DOCTYPE svg PUBLIC "-//W3C//DTD SVG 1.1//EN" "http://www.w3.org/Graphics/SVG/1.1/DTD/svg11.dtd">
<svg xmlns="http://www.w3.org/2000/svg" version="1.1" width="196px" height="196px" style="shape-rendering:geometricPrecision; text-rendering:geometricPrecision; image-rendering:optimizeQuality; fill-rule:evenodd; clip-rule:evenodd" xmlns:xlink="http://www.w3.org/1999/xlink">
<g><path style="opacity:0.995" fill="#f5f5f5" d="M 30.5,-0.5 C 50.5,-0.5 70.5,-0.5 90.5,-0.5C 42.5124,7.98789 14.3457,36.3212 6,84.5C 3.99303,104.285 7.49303,122.618 16.5,139.5C 19.6315,143.65 22.1315,147.65 24,151.5C 25.3287,152.494 26.662,153.494 28,154.5C 29.1309,153.665 29.9642,153.665 30.5,154.5C 30.3893,155.117 30.056,155.617 29.5,156C 26.905,156.226 24.405,156.726 22,157.5C 19.61,161.171 18.11,165.171 17.5,169.5C 22.0306,168.993 26.0306,167.326 29.5,164.5C 31.3904,164.703 32.8904,164.037 34,162.5C 46.8328,175.455 63.4995,184.122 84,188.5C 86.0553,187.15 87.5553,187.483 88.5,189.5C 88.3222,188.044 89.1555,186.711 91,185.5C 97.6667,185.5 104.333,185.5 111,185.5C 112.844,186.711 113.678,188.044 113.5,189.5C 114.797,187.633 116.297,187.3 118,188.5C 125.816,187.007 133.149,184.341 140,180.5C 140.333,180.833 140.667,181.167 141,181.5C 141.667,180.167 142.333,178.833 143,177.5C 143.667,178.167 144.333,178.833 145,179.5C 147.23,177.615 149.73,176.115 152.5,175C 175.108,159.851 189.442,137.684 195.5,108.5C 195.5,127.833 195.5,147.167 195.5,166.5C 188.269,182.622 175.936,192.289 158.5,195.5C 118.833,195.5 79.1667,195.5 39.5,195.5C 18.8308,192.001 5.99742,180.001 1,159.5C 0.333333,117.5 0.333333,75.5 1,33.5C 4.64484,16.6951 14.4782,5.3618 30.5,-0.5 Z"/></g>
<g><path style="opacity:1" fill="#f0f0f1" d="M 90.5,-0.5 C 116.167,-0.5 141.833,-0.5 167.5,-0.5C 180.77,4.43718 190.104,13.4372 195.5,26.5C 195.5,53.8333 195.5,81.1667 195.5,108.5C 189.442,137.684 175.108,159.851 152.5,175C 149.73,176.115 147.23,177.615 145,179.5C 144.333,178.833 143.667,178.167 143,177.5C 142.333,178.833 141.667,180.167 141,181.5C 140.667,181.167 140.333,180.833 140,180.5C 133.149,184.341 125.816,187.007 118,188.5C 116.297,187.3 114.797,187.633 113.5,189.5C 113.678,188.044 112.844,186.711 111,185.5C 104.333,185.5 97.6667,185.5 91,185.5C 89.1555,186.711 88.3222,188.044 88.5,189.5C 87.5553,187.483 86.0553,187.15 84,188.5C 63.4995,184.122 46.8328,175.455 34,162.5C 32.8904,164.037 31.3904,164.703 29.5,164.5C 31.8123,162.364 34.3123,160.364 37,158.5C 39.5349,152.592 42.7016,147.092 46.5,142C 55.5743,142.768 63.9077,140.768 71.5,136C 75.4984,131.687 79.8318,127.853 84.5,124.5C 90.4575,126.596 96.4575,128.263 102.5,129.5C 102.333,145.503 102.5,161.503 103,177.5C 105.333,180.167 107.667,180.167 110,177.5C 110.5,161.503 110.667,145.503 110.5,129.5C 120.582,128.536 129.749,125.203 138,119.5C 139.126,120.944 140.626,121.61 142.5,121.5C 150.709,120.077 158.709,117.91 166.5,115C 168.81,114.503 171.143,114.337 173.5,114.5C 173.156,121.885 169.489,126.552 162.5,128.5C 162.023,129.478 161.357,130.311 160.5,131C 157.696,131.129 155.03,130.796 152.5,130C 139.664,139.223 141.33,142.89 157.5,141C 160.683,138.355 164.349,136.689 168.5,136C 171.629,132.248 174.129,128.081 176,123.5C 178.742,121.085 181.242,118.585 183.5,116C 182.946,113.176 182.446,110.343 182,107.5C 181.25,106.874 180.416,106.374 179.5,106C 174.167,105.667 168.833,105.333 163.5,105C 160.22,104.944 157.22,104.111 154.5,102.5C 156.386,96.3806 155.552,90.7139 152,85.5C 151.944,79.1741 151.111,73.0074 149.5,67C 150.5,66.3333 151.5,66.3333 152.5,67C 156.284,70.1085 159.284,73.7751 161.5,78C 167.843,79.9307 172.176,77.9307 174.5,72C 171.397,66.2045 168.23,60.3712 165,54.5C 165.316,47.4267 162.483,42.0933 156.5,38.5C 155.682,35.8929 155.182,33.2263 155,30.5C 152.691,31.9752 150.524,33.6419 148.5,35.5C 147.618,34.2402 146.618,33.0736 145.5,32C 142.5,31.3333 139.5,31.3333 136.5,32C 132.387,36.1126 128.221,40.2792 124,44.5C 123.296,50.1293 121.629,55.4626 119,60.5C 117.955,65.7855 118.455,70.7855 120.5,75.5C 118.983,75.5106 117.816,76.1772 117,77.5C 115.487,80.5244 113.487,83.1911 111,85.5C 110.333,65.1667 110.333,44.8333 111,24.5C 115.923,19.0468 115.423,14.2135 109.5,10C 98.1766,9.84988 95.5099,14.6832 101.5,24.5C 101.5,45.5 101.5,66.5 101.5,87.5C 97.1617,87.3781 96.8284,87.0447 100.5,86.5C 100.5,70.8333 100.5,55.1667 100.5,39.5C 71.0107,41.7339 53.0107,57.2339 46.5,86C 46.7586,87.7866 47.4253,89.2866 48.5,90.5C 45.2496,92.2433 42.4162,94.5766 40,97.5C 36.5324,102.934 32.699,108.101 28.5,113C 25.7538,114.929 23.0871,114.762 20.5,112.5C 19.2757,114.898 19.4424,117.231 21,119.5C 28.9712,127.891 36.3046,127.224 43,117.5C 44.9698,114.032 47.1365,110.699 49.5,107.5C 49.9593,111.61 51.4593,115.277 54,118.5C 54.9103,126.923 51.077,130.757 42.5,130C 42,130.5 41.5,131 41,131.5C 40.5555,137.392 39.2222,143.058 37,148.5C 35.5486,151.303 33.3819,153.303 30.5,154.5C 29.9642,153.665 29.1309,153.665 28,154.5C 26.662,153.494 25.3287,152.494 24,151.5C 22.1315,147.65 19.6315,143.65 16.5,139.5C 7.49303,122.618 3.99303,104.285 6,84.5C 14.3457,36.3212 42.5124,7.98789 90.5,-0.5 Z"/></g>
<g><path style="opacity:1" fill="#cd9932" d="M 120.5,75.5 C 123.13,82.9127 124.13,90.5794 123.5,98.5C 122.167,99.5 120.833,100.5 119.5,101.5C 116.772,101.171 114.438,101.837 112.5,103.5C 107.978,105.264 103.645,107.264 99.5,109.5C 97.0971,109.552 94.7638,109.219 92.5,108.5C 91.4863,107.326 90.153,106.66 88.5,106.5C 86.2114,104.613 83.5447,103.279 80.5,102.5C 80.0269,101.094 79.0269,100.427 77.5,100.5C 73.9133,96.9799 72.2467,92.6466 72.5,87.5C 73.1342,86.0532 74.3009,85.3866 76,85.5C 84.6926,87.6325 93.5259,88.6325 102.5,88.5C 102.831,66.9935 102.497,45.6601 101.5,24.5C 95.5099,14.6832 98.1766,9.84988 109.5,10C 115.423,14.2135 115.923,19.0468 111,24.5C 110.333,44.8333 110.333,65.1667 111,85.5C 113.487,83.1911 115.487,80.5244 117,77.5C 117.816,76.1772 118.983,75.5106 120.5,75.5 Z"/></g>
<g><path style="opacity:1" fill="#394c8e" d="M 110.5,129.5 C 107.833,129.5 105.167,129.5 102.5,129.5C 96.4575,128.263 90.4575,126.596 84.5,124.5C 79.8318,127.853 75.4984,131.687 71.5,136C 63.9077,140.768 55.5743,142.768 46.5,142C 42.7016,147.092 39.5349,152.592 37,158.5C 34.3123,160.364 31.8123,162.364 29.5,164.5C 26.0306,167.326 22.0306,168.993 17.5,169.5C 18.11,165.171 19.61,161.171 22,157.5C 24.405,156.726 26.905,156.226 29.5,156C 30.056,155.617 30.3893,155.117 30.5,154.5C 33.3819,153.303 35.5486,151.303 37,148.5C 39.2222,143.058 40.5555,137.392 41,131.5C 41.5,131 42,130.5 42.5,130C 51.077,130.757 54.9103,126.923 54,118.5C 51.4593,115.277 49.9593,111.61 49.5,107.5C 47.1365,110.699 44.9698,114.032 43,117.5C 36.3046,127.224 28.9712,127.891 21,119.5C 19.4424,117.231 19.2757,114.898 20.5,112.5C 23.0871,114.762 25.7538,114.929 28.5,113C 32.699,108.101 36.5324,102.934 40,97.5C 42.4162,94.5766 45.2496,92.2433 48.5,90.5C 56.38,88.654 64.38,87.654 72.5,87.5C 72.2467,92.6466 73.9133,96.9799 77.5,100.5C 77.9731,101.906 78.9731,102.573 80.5,102.5C 82.6123,104.771 85.279,106.104 88.5,106.5C 90.153,106.66 91.4863,107.326 92.5,108.5C 93.3121,109.993 94.6455,110.66 96.5,110.5C 97.7261,110.48 98.7261,110.147 99.5,109.5C 103.645,107.264 107.978,105.264 112.5,103.5C 115.067,103.279 117.401,102.612 119.5,101.5C 120.833,100.5 122.167,99.5 123.5,98.5C 124.651,93.3497 124.817,88.0164 124,82.5C 123.478,79.7187 122.311,77.3854 120.5,75.5C 118.455,70.7855 117.955,65.7855 119,60.5C 121.629,55.4626 123.296,50.1293 124,44.5C 128.221,40.2792 132.387,36.1126 136.5,32C 139.5,31.3333 142.5,31.3333 145.5,32C 146.618,33.0736 147.618,34.2402 148.5,35.5C 150.524,33.6419 152.691,31.9752 155,30.5C 155.182,33.2263 155.682,35.8929 156.5,38.5C 162.483,42.0933 165.316,47.4267 165,54.5C 168.23,60.3712 171.397,66.2045 174.5,72C 172.176,77.9307 167.843,79.9307 161.5,78C 159.284,73.7751 156.284,70.1085 152.5,67C 151.5,66.3333 150.5,66.3333 149.5,67C 151.111,73.0074 151.944,79.1741 152,85.5C 155.552,90.7139 156.386,96.3806 154.5,102.5C 157.22,104.111 160.22,104.944 163.5,105C 168.833,105.333 174.167,105.667 179.5,106C 180.416,106.374 181.25,106.874 182,107.5C 182.446,110.343 182.946,113.176 183.5,116C 181.242,118.585 178.742,121.085 176,123.5C 174.129,128.081 171.629,132.248 168.5,136C 164.349,136.689 160.683,138.355 157.5,141C 141.33,142.89 139.664,139.223 152.5,130C 155.03,130.796 157.696,131.129 160.5,131C 161.357,130.311 162.023,129.478 162.5,128.5C 169.489,126.552 173.156,121.885 173.5,114.5C 171.143,114.337 168.81,114.503 166.5,115C 158.709,117.91 150.709,120.077 142.5,121.5C 140.626,121.61 139.126,120.944 138,119.5C 129.749,125.203 120.582,128.536 110.5,129.5 Z"/></g>
<g><path style="opacity:1" fill="#ebeae9" d="M 101.5,24.5 C 102.497,45.6601 102.831,66.9935 102.5,88.5C 93.5259,88.6325 84.6926,87.6325 76,85.5C 74.3009,85.3866 73.1342,86.0532 72.5,87.5C 64.38,87.654 56.38,88.654 48.5,90.5C 47.4253,89.2866 46.7586,87.7866 46.5,86C 53.0107,57.2339 71.0107,41.7339 100.5,39.5C 100.5,55.1667 100.5,70.8333 100.5,86.5C 96.8284,87.0447 97.1617,87.3781 101.5,87.5C 101.5,66.5 101.5,45.5 101.5,24.5 Z"/></g>
<g><path style="opacity:1" fill="#bdbbc4" d="M 120.5,75.5 C 122.311,77.3854 123.478,79.7187 124,82.5C 124.817,88.0164 124.651,93.3497 123.5,98.5C 124.13,90.5794 123.13,82.9127 120.5,75.5 Z"/></g>
<g><path style="opacity:1" fill="#e0d9ce" d="M 77.5,100.5 C 79.0269,100.427 80.0269,101.094 80.5,102.5C 78.9731,102.573 77.9731,101.906 77.5,100.5 Z"/></g>
<g><path style="opacity:1" fill="#bfbdc3" d="M 119.5,101.5 C 117.401,102.612 115.067,103.279 112.5,103.5C 114.438,101.837 116.772,101.171 119.5,101.5 Z"/></g>
<g><path style="opacity:1" fill="#c5c2c7" d="M 80.5,102.5 C 83.5447,103.279 86.2114,104.613 88.5,106.5C 85.279,106.104 82.6123,104.771 80.5,102.5 Z"/></g>
<g><path style="opacity:1" fill="#aeb3c9" d="M 92.5,108.5 C 94.7638,109.219 97.0971,109.552 99.5,109.5C 98.7261,110.147 97.7261,110.48 96.5,110.5C 94.6455,110.66 93.3121,109.993 92.5,108.5 Z"/></g>
<g><path style="opacity:1" fill="#cb972f" d="M 102.5,129.5 C 105.167,129.5 107.833,129.5 110.5,129.5C 110.667,145.503 110.5,161.503 110,177.5C 107.667,180.167 105.333,180.167 103,177.5C 102.5,161.503 102.333,145.503 102.5,129.5 Z"/></g>
</svg>
